<svg xmlns="http://www.w3.org/2000/svg" viewBox="0 0 1280 640" width="1280" height="640">
  <rect width="1280" height="640" fill="#FBFAF8"></rect>
  <g transform="translate(280.66,220.16) scale(2.12)" fill="none"><g transform="translate(6,6) scale(0.8125)">
    <path d="M44 16 A20 20 0 1 1 20 16" fill="none" stroke="#BF5B38" stroke-width="5" stroke-linecap="round"></path>
    <path d="M20 8 L20 16 L28 16" fill="none" stroke="#BF5B38" stroke-width="5" stroke-linecap="round" stroke-linejoin="round"></path>
    <rect x="27.5" y="25" width="9" height="14" rx="1.6" fill="#211D1A"></rect>
  </g><path d="M81.270 43.300L81.270 43.300Q79.140 43.300 77.565 42.505Q75.990 41.710 75.120 40.255Q74.250 38.800 74.250 36.820L74.250 36.820L74.250 32.680Q74.250 30.700 75.120 29.245Q75.990 27.790 77.565 26.995Q79.140 26.200 81.270 26.200L81.270 26.200Q84.360 26.200 86.235 27.805Q88.110 29.410 88.200 32.170L88.200 32.170L84.510 32.170Q84.420 30.880 83.535 30.175Q82.650 29.470 81.270 29.470L81.270 29.470Q79.740 29.470 78.870 30.295Q78 31.120 78 32.650L78 32.650L78 36.820Q78 38.350 78.870 39.190Q79.740 40.030 81.270 40.030L81.270 40.030Q82.680 40.030 83.550 39.325Q84.420 38.620 84.510 37.330L84.510 37.330L88.200 37.330Q88.110 40.090 86.235 41.695Q84.360 43.300 81.270 43.300Z M98.400 43.270L98.400 43.270Q95.220 43.270 93.360 41.485Q91.500 39.700 91.500 36.670L91.500 36.670L91.500 32.830Q91.500 29.770 93.360 28Q95.220 26.230 98.400 26.230L98.400 26.230Q101.580 26.230 103.440 28Q105.300 29.770 105.300 32.830L105.300 32.830L105.300 36.670Q105.300 39.700 103.440 41.485Q101.580 43.270 98.400 43.270ZM98.400 40L98.400 40Q99.900 40 100.725 39.175Q101.550 38.350 101.550 36.790L101.550 36.790L101.550 32.710Q101.550 31.150 100.725 30.325Q99.900 29.500 98.400 29.500L98.400 29.500Q96.900 29.500 96.075 30.325Q95.250 31.150 95.250 32.710L95.250 32.710L95.250 36.790Q95.250 38.350 96.075 39.175Q96.900 40 98.400 40Z M113.460 43L109.710 43L109.710 26.500L113.370 26.500L113.370 29.710Q113.670 28.090 114.855 27.145Q116.040 26.200 117.930 26.200L117.930 26.200Q120.450 26.200 121.860 27.820Q123.270 29.440 123.270 32.350L123.270 32.350L123.270 33.910L119.520 33.910L119.520 32.530Q119.520 31.030 118.740 30.235Q117.960 29.440 116.520 29.440L116.520 29.440Q115.020 29.440 114.240 30.340Q113.460 31.240 113.460 32.890L113.460 32.890L113.460 43Z M133.230 43.300L133.230 43.300Q131.130 43.300 129.570 42.490Q128.010 41.680 127.155 40.195Q126.300 38.710 126.300 36.700L126.300 36.700L126.300 32.800Q126.300 30.790 127.155 29.305Q128.010 27.820 129.570 27.010Q131.130 26.200 133.230 26.200L133.230 26.200Q135.300 26.200 136.845 27.010Q138.390 27.820 139.245 29.275Q140.100 30.730 140.100 32.680L140.100 32.680L140.100 35.680L129.900 35.680L129.900 36.820Q129.900 38.500 130.770 39.355Q131.640 40.210 133.230 40.210L133.230 40.210Q134.400 40.210 135.225 39.805Q136.050 39.400 136.200 38.620L136.200 38.620L139.920 38.620Q139.530 40.750 137.700 42.025Q135.870 43.300 133.230 43.300ZM129.900 32.680L129.900 32.680L129.900 33.250L136.500 33.220L136.500 32.650Q136.500 30.940 135.660 30.010Q134.820 29.080 133.230 29.080L133.230 29.080Q131.580 29.080 130.740 30.025Q129.900 30.970 129.900 32.680Z M155.400 34.840L145.800 34.840L145.800 31.360L155.400 31.360L155.400 34.840Z" fill="#211D1A"></path><path d="M163.710 43L160.410 43L160.410 26.500L163.530 26.500L163.530 28.900L163.620 28.900Q163.710 27.700 164.460 26.950Q165.210 26.200 166.350 26.200L166.350 26.200Q167.460 26.200 168.240 26.905Q169.020 27.610 169.290 28.810L169.290 28.810Q169.410 27.610 170.175 26.905Q170.940 26.200 172.110 26.200L172.110 26.200Q173.610 26.200 174.600 27.385Q175.590 28.570 175.590 30.430L175.590 30.430L175.590 43L172.290 43L172.290 30.700Q172.290 29.890 171.915 29.425Q171.540 28.960 170.850 28.960L170.850 28.960Q169.500 28.960 169.500 30.700L169.500 30.700L169.500 43L166.500 43L166.500 30.700Q166.500 29.890 166.155 29.425Q165.810 28.960 165.150 28.960L165.150 28.960Q163.710 28.960 163.710 30.700L163.710 30.700L163.710 43Z M185.430 43.300L185.430 43.300Q183.330 43.300 181.770 42.490Q180.210 41.680 179.355 40.195Q178.500 38.710 178.500 36.700L178.500 36.700L178.500 32.800Q178.500 30.790 179.355 29.305Q180.210 27.820 181.770 27.010Q183.330 26.200 185.430 26.200L185.430 26.200Q187.500 26.200 189.045 27.010Q190.590 27.820 191.445 29.275Q192.300 30.730 192.300 32.680L192.300 32.680L192.300 35.680L182.100 35.680L182.100 36.820Q182.100 38.500 182.970 39.355Q183.840 40.210 185.430 40.210L185.430 40.210Q186.600 40.210 187.425 39.805Q188.250 39.400 188.400 38.620L188.400 38.620L192.120 38.620Q191.730 40.750 189.900 42.025Q188.070 43.300 185.430 43.300ZM182.100 32.680L182.100 32.680L182.100 33.250L188.700 33.220L188.700 32.650Q188.700 30.940 187.860 30.010Q187.020 29.080 185.430 29.080L185.430 29.080Q183.780 29.080 182.940 30.025Q182.100 30.970 182.100 32.680Z M198.510 43L195.210 43L195.210 26.500L198.330 26.500L198.330 28.900L198.420 28.900Q198.510 27.700 199.260 26.950Q200.010 26.200 201.150 26.200L201.150 26.200Q202.260 26.200 203.040 26.905Q203.820 27.610 204.090 28.810L204.090 28.810Q204.210 27.610 204.975 26.905Q205.740 26.200 206.910 26.200L206.910 26.200Q208.410 26.200 209.400 27.385Q210.390 28.570 210.390 30.430L210.390 30.430L210.390 43L207.090 43L207.090 30.700Q207.090 29.890 206.715 29.425Q206.340 28.960 205.650 28.960L205.650 28.960Q204.300 28.960 204.300 30.700L204.300 30.700L204.300 43L201.300 43L201.300 30.700Q201.300 29.890 200.955 29.425Q200.610 28.960 199.950 28.960L199.950 28.960Q198.510 28.960 198.510 30.700L198.510 30.700L198.510 43Z M220.200 43.270L220.200 43.270Q217.020 43.270 215.160 41.485Q213.300 39.700 213.300 36.670L213.300 36.670L213.300 32.830Q213.300 29.770 215.160 28Q217.020 26.230 220.200 26.230L220.200 26.230Q223.380 26.230 225.240 28Q227.100 29.770 227.100 32.830L227.100 32.830L227.100 36.670Q227.100 39.700 225.240 41.485Q223.380 43.270 220.200 43.270ZM220.200 40L220.200 40Q221.700 40 222.525 39.175Q223.350 38.350 223.350 36.790L223.350 36.790L223.350 32.710Q223.350 31.150 222.525 30.325Q221.700 29.500 220.200 29.500L220.200 29.500Q218.700 29.500 217.875 30.325Q217.050 31.150 217.050 32.710L217.050 32.710L217.050 36.790Q217.050 38.350 217.875 39.175Q218.700 40 220.200 40Z M235.260 43L231.510 43L231.510 26.500L235.170 26.500L235.170 29.710Q235.470 28.090 236.655 27.145Q237.840 26.200 239.730 26.200L239.730 26.200Q242.250 26.200 243.660 27.820Q245.070 29.440 245.070 32.350L245.070 32.350L245.070 33.910L241.320 33.910L241.320 32.530Q241.320 31.030 240.540 30.235Q239.760 29.440 238.320 29.440L238.320 29.440Q236.820 29.440 236.040 30.340Q235.260 31.240 235.260 32.890L235.260 32.890L235.260 43Z M254.880 48.400L250.950 48.400L253.290 42.100L247.080 26.500L251.040 26.500L254.220 34.930Q254.490 35.680 254.760 36.565Q255.030 37.450 255.150 38.200L255.150 38.200Q255.240 37.450 255.495 36.565Q255.750 35.680 256.020 34.930L256.020 34.930L258.960 26.500L262.920 26.500L254.880 48.400Z" fill="#BF5B38"></path><path d="M277.200 34.840L267.600 34.840L267.600 31.360L277.200 31.360L277.200 34.840Z M287.010 43L283.260 43L283.260 21.100L287.010 21.100L287.010 32.980L289.650 32.980L293.580 26.500L297.750 26.500L292.860 34.480L297.930 43L293.670 43L289.650 36.160L287.010 36.160L287.010 43Z M314.940 43L300.480 43L300.480 39.610L306.120 39.610L306.120 29.890L301.080 29.890L301.080 26.500L309.870 26.500L309.870 39.610L314.940 39.610L314.940 43ZM307.740 23.740L307.740 23.740Q306.600 23.740 305.940 23.155Q305.280 22.570 305.280 21.580L305.280 21.580Q305.280 20.590 305.940 20.005Q306.600 19.420 307.740 19.420L307.740 19.420Q308.880 19.420 309.540 20.005Q310.200 20.590 310.200 21.580L310.200 21.580Q310.200 22.570 309.540 23.155Q308.880 23.740 307.740 23.740Z M331.410 43L326.250 43Q323.940 43 322.575 41.665Q321.210 40.330 321.210 38.050L321.210 38.050L321.210 29.890L316.650 29.890L316.650 26.500L321.210 26.500L321.210 21.850L324.990 21.850L324.990 26.500L331.560 26.500L331.560 29.890L324.990 29.890L324.990 37.960Q324.990 38.680 325.395 39.145Q325.800 39.610 326.520 39.610L326.520 39.610L331.410 39.610L331.410 43Z" fill="#211D1A"></path></g>
  <path transform="translate(370.00,407.84)" d="M5.460 0L2.760 0L2.760-21.900L9.810-21.900Q12.870-21.900 14.685-20.145Q16.500-18.390 16.500-15.450L16.500-15.450Q16.500-12.510 14.685-10.755Q12.870-9 9.810-9L9.810-9L5.460-9L5.460 0ZM5.460-19.470L5.460-11.430L9.810-11.430Q11.580-11.430 12.645-12.525Q13.710-13.620 13.710-15.450L13.710-15.450Q13.710-17.310 12.645-18.390Q11.580-19.470 9.810-19.470L9.810-19.470L5.460-19.470Z M27 0.300L27 0.300Q24.090 0.300 22.305-1.455Q20.520-3.210 20.520-6.300L20.520-6.300L20.520-10.200Q20.520-13.290 22.305-15.045Q24.090-16.800 27-16.800L27-16.800Q28.950-16.800 30.405-16.020Q31.860-15.240 32.670-13.830Q33.480-12.420 33.480-10.500L33.480-10.500L33.480-7.560L23.160-7.560L23.160-6Q23.160-4.170 24.210-3.105Q25.260-2.040 27-2.040L27-2.040Q28.500-2.040 29.475-2.625Q30.450-3.210 30.660-4.200L30.660-4.200L33.360-4.200Q33.090-2.130 31.350-0.915Q29.610 0.300 27 0.300ZM23.160-10.500L23.160-9.660L30.840-9.660L30.840-10.500Q30.840-12.450 29.835-13.515Q28.830-14.580 27-14.580L27-14.580Q25.170-14.580 24.165-13.515Q23.160-12.450 23.160-10.500L23.160-10.500Z M42.060 0L39.360 0L39.360-16.500L42.060-16.500L42.060-13.350L42.120-13.350Q42.330-14.940 43.470-15.870Q44.610-16.800 46.530-16.800L46.530-16.800Q49.110-16.800 50.505-15.255Q51.900-13.710 51.900-10.860L51.900-10.860L51.900-9.450L49.200-9.450L49.200-10.860Q49.200-14.460 45.690-14.460L45.690-14.460Q43.920-14.460 42.990-13.440Q42.060-12.420 42.060-10.500L42.060-10.500L42.060 0Z M63.660 0.240L62.340 0.240Q59.580 0.240 58.065-1.005Q56.550-2.250 56.550-4.530L56.550-4.530L59.250-4.530Q59.250-3.390 60.060-2.745Q60.870-2.100 62.340-2.100L62.340-2.100L63.660-2.100Q65.160-2.100 65.985-2.760Q66.810-3.420 66.810-4.620L66.810-4.620Q66.810-6.750 64.860-7.020L64.860-7.020L60.300-7.680Q58.620-7.920 57.690-9.075Q56.760-10.230 56.760-12.120L56.760-12.120Q56.760-14.280 58.245-15.510Q59.730-16.740 62.340-16.740L62.340-16.740L63.660-16.740Q66.060-16.740 67.575-15.555Q69.090-14.370 69.210-12.450L69.210-12.450L66.480-12.450Q66.420-13.320 65.655-13.890Q64.890-14.460 63.660-14.460L63.660-14.460L62.340-14.460Q60.960-14.460 60.180-13.830Q59.400-13.200 59.400-12.120L59.400-12.120Q59.400-10.380 60.990-10.140L60.990-10.140L65.250-9.540Q69.450-8.940 69.450-4.620L69.450-4.620Q69.450-2.310 67.935-1.035Q66.420 0.240 63.660 0.240L63.660 0.240Z M88.650 0L74.550 0L74.550-2.460L80.400-2.460L80.400-14.040L75.150-14.040L75.150-16.500L83.100-16.500L83.100-2.460L88.650-2.460L88.650 0ZM81.450-19.470L81.450-19.470Q80.460-19.470 79.890-19.980Q79.320-20.490 79.320-21.360L79.320-21.360Q79.320-22.260 79.890-22.785Q80.460-23.310 81.450-23.310L81.450-23.310Q82.440-23.310 83.010-22.785Q83.580-22.260 83.580-21.360L83.580-21.360Q83.580-20.490 83.010-19.980Q82.440-19.470 81.450-19.470Z M99.660 0.240L98.340 0.240Q95.580 0.240 94.065-1.005Q92.550-2.250 92.550-4.530L92.550-4.530L95.250-4.530Q95.250-3.390 96.060-2.745Q96.870-2.100 98.340-2.100L98.340-2.100L99.660-2.100Q101.160-2.100 101.985-2.760Q102.810-3.420 102.810-4.620L102.810-4.620Q102.810-6.750 100.860-7.020L100.860-7.020L96.300-7.680Q94.620-7.920 93.690-9.075Q92.760-10.230 92.760-12.120L92.760-12.120Q92.760-14.280 94.245-15.510Q95.730-16.740 98.340-16.740L98.340-16.740L99.660-16.740Q102.060-16.740 103.575-15.555Q105.090-14.370 105.210-12.450L105.210-12.450L102.480-12.450Q102.420-13.320 101.655-13.890Q100.890-14.460 99.660-14.460L99.660-14.460L98.340-14.460Q96.960-14.460 96.180-13.830Q95.400-13.200 95.400-12.120L95.400-12.120Q95.400-10.380 96.990-10.140L96.990-10.140L101.250-9.540Q105.450-8.940 105.450-4.620L105.450-4.620Q105.450-2.310 103.935-1.035Q102.420 0.240 99.660 0.240L99.660 0.240Z M123.450 0L118.650 0Q116.610 0 115.380-1.185Q114.150-2.370 114.150-4.350L114.150-4.350L114.150-14.040L109.410-14.040L109.410-16.500L114.150-16.500L114.150-21.150L116.850-21.150L116.850-16.500L123.600-16.500L123.600-14.040L116.850-14.040L116.850-4.350Q116.850-3.510 117.345-2.985Q117.840-2.460 118.650-2.460L118.650-2.460L123.450-2.460L123.450 0Z M135 0.300L135 0.300Q132.090 0.300 130.305-1.455Q128.520-3.210 128.520-6.300L128.520-6.300L128.520-10.200Q128.520-13.290 130.305-15.045Q132.090-16.800 135-16.800L135-16.800Q136.950-16.800 138.405-16.020Q139.860-15.240 140.670-13.830Q141.480-12.420 141.480-10.500L141.480-10.500L141.480-7.560L131.160-7.560L131.160-6Q131.160-4.170 132.210-3.105Q133.260-2.040 135-2.040L135-2.040Q136.500-2.040 137.475-2.625Q138.450-3.210 138.660-4.200L138.660-4.200L141.360-4.200Q141.090-2.130 139.350-0.915Q137.610 0.300 135 0.300ZM131.160-10.500L131.160-9.660L138.840-9.660L138.840-10.500Q138.840-12.450 137.835-13.515Q136.830-14.580 135-14.580L135-14.580Q133.170-14.580 132.165-13.515Q131.160-12.450 131.160-10.500L131.160-10.500Z M149.460 0L146.760 0L146.760-16.500L149.460-16.500L149.460-13.350L149.490-13.350Q149.700-15 150.840-15.900Q151.980-16.800 153.870-16.800L153.870-16.800Q156.360-16.800 157.830-15.270Q159.300-13.740 159.300-11.100L159.300-11.100L159.300 0L156.600 0L156.600-10.620Q156.600-12.510 155.655-13.515Q154.710-14.520 153.090-14.520L153.090-14.520Q151.410-14.520 150.435-13.470Q149.460-12.420 149.460-10.500L149.460-10.500L149.460 0Z M177.450 0L172.650 0Q170.610 0 169.380-1.185Q168.150-2.370 168.150-4.350L168.150-4.350L168.150-14.040L163.410-14.040L163.410-16.500L168.150-16.500L168.150-21.150L170.850-21.150L170.850-16.500L177.600-16.500L177.600-14.040L170.850-14.040L170.850-4.350Q170.850-3.510 171.345-2.985Q171.840-2.460 172.650-2.460L172.650-2.460L177.450-2.460L177.450 0Z M189.090 4.800L186.300 4.800L187.950-4.380L191.190-4.380L189.090 4.800Z  M221.460 5.400L218.760 5.400L218.760-16.500L221.460-16.500L221.460-13.350L221.490-13.350Q221.700-14.970 222.900-15.885Q224.100-16.800 225.960-16.800L225.960-16.800Q228.450-16.800 229.920-15.165Q231.390-13.530 231.390-10.680L231.390-10.680L231.390-5.850Q231.390-3 229.920-1.350Q228.450 0.300 225.960 0.300L225.960 0.300Q224.100 0.300 222.900-0.630Q221.700-1.560 221.490-3.150L221.490-3.150L221.400-3.150L221.460 0.600L221.460 5.400ZM225.060-2.040L225.060-2.040Q226.770-2.040 227.730-2.940Q228.690-3.840 228.690-5.850L228.690-5.850L228.690-10.650Q228.690-12.690 227.730-13.575Q226.770-14.460 225.060-14.460L225.060-14.460Q223.410-14.460 222.435-13.410Q221.460-12.360 221.460-10.500L221.460-10.500L221.460-6Q221.460-4.140 222.435-3.090Q223.410-2.040 225.060-2.040Z M243 0.300L243 0.300Q240.090 0.300 238.305-1.455Q236.520-3.210 236.520-6.300L236.520-6.300L236.520-10.200Q236.520-13.290 238.305-15.045Q240.090-16.800 243-16.800L243-16.800Q244.950-16.800 246.405-16.020Q247.860-15.240 248.670-13.830Q249.480-12.420 249.480-10.500L249.480-10.500L249.480-7.560L239.160-7.560L239.160-6Q239.160-4.170 240.210-3.105Q241.260-2.040 243-2.040L243-2.040Q244.500-2.040 245.475-2.625Q246.450-3.210 246.660-4.200L246.660-4.200L249.360-4.200Q249.090-2.130 247.350-0.915Q245.610 0.300 243 0.300ZM239.160-10.500L239.160-9.660L246.840-9.660L246.840-10.500Q246.840-12.450 245.835-13.515Q244.830-14.580 243-14.580L243-14.580Q241.170-14.580 240.165-13.515Q239.160-12.450 239.160-10.500L239.160-10.500Z M258.060 0L255.360 0L255.360-16.500L258.060-16.500L258.060-13.350L258.120-13.350Q258.330-14.940 259.470-15.870Q260.610-16.800 262.530-16.800L262.530-16.800Q265.110-16.800 266.505-15.255Q267.900-13.710 267.900-10.860L267.900-10.860L267.900-9.450L265.200-9.450L265.200-10.860Q265.200-14.460 261.690-14.460L261.690-14.460Q259.920-14.460 258.990-13.440Q258.060-12.420 258.060-10.500L258.060-10.500L258.060 0Z M283.800-8.700L274.200-8.700L274.200-11.100L283.800-11.100L283.800-8.700Z M293.460 5.400L290.760 5.400L290.760-16.500L293.460-16.500L293.460-13.350L293.490-13.350Q293.700-14.970 294.900-15.885Q296.100-16.800 297.960-16.800L297.960-16.800Q300.450-16.800 301.920-15.165Q303.390-13.530 303.390-10.680L303.390-10.680L303.390-5.850Q303.390-3 301.920-1.350Q300.450 0.300 297.960 0.300L297.960 0.300Q296.100 0.300 294.900-0.630Q293.700-1.560 293.490-3.150L293.490-3.150L293.400-3.150L293.460 0.600L293.460 5.400ZM297.060-2.040L297.060-2.040Q298.770-2.040 299.730-2.940Q300.690-3.840 300.690-5.850L300.690-5.850L300.690-10.650Q300.690-12.690 299.730-13.575Q298.770-14.460 297.060-14.460L297.060-14.460Q295.410-14.460 294.435-13.410Q293.460-12.360 293.460-10.500L293.460-10.500L293.460-6Q293.460-4.140 294.435-3.090Q295.410-2.040 297.060-2.040Z M312.060 0L309.360 0L309.360-16.500L312.060-16.500L312.060-13.350L312.120-13.350Q312.330-14.940 313.470-15.870Q314.610-16.800 316.530-16.800L316.530-16.800Q319.110-16.800 320.505-15.255Q321.900-13.710 321.900-10.860L321.900-10.860L321.900-9.450L319.200-9.450L319.200-10.860Q319.200-14.460 315.690-14.460L315.690-14.460Q313.920-14.460 312.990-13.440Q312.060-12.420 312.060-10.500L312.060-10.500L312.060 0Z M333 0.240L333 0.240Q330.030 0.240 328.275-1.500Q326.520-3.240 326.520-6.360L326.520-6.360L326.520-10.140Q326.520-13.290 328.260-15.015Q330-16.740 333-16.740L333-16.740Q336-16.740 337.740-15.015Q339.480-13.290 339.480-10.140L339.480-10.140L339.480-6.360Q339.480-3.240 337.725-1.500Q335.970 0.240 333 0.240ZM333-2.160L333-2.160Q334.770-2.160 335.775-3.150Q336.780-4.140 336.780-6.060L336.780-6.060L336.780-10.440Q336.780-12.360 335.775-13.350Q334.770-14.340 333-14.340L333-14.340Q331.260-14.340 330.240-13.350Q329.220-12.360 329.220-10.440L329.220-10.440L329.220-6.060Q329.220-4.140 330.240-3.150Q331.260-2.160 333-2.160Z M348.420 5.400L344.700 5.400L344.700 2.940L348.420 2.940Q350.280 2.940 351.315 1.920Q352.350 0.900 352.350-0.930L352.350-0.930L352.350-14.040L344.550-14.040L344.550-16.500L355.050-16.500L355.050-0.930Q355.050 1.980 353.250 3.690Q351.450 5.400 348.420 5.400L348.420 5.400ZM353.400-19.470L353.400-19.470Q352.410-19.470 351.840-19.980Q351.270-20.490 351.270-21.360L351.270-21.360Q351.270-22.260 351.840-22.785Q352.410-23.310 353.400-23.310L353.400-23.310Q354.390-23.310 354.960-22.785Q355.530-22.260 355.530-21.360L355.530-21.360Q355.530-20.490 354.960-19.980Q354.390-19.470 353.400-19.470Z M369 0.300L369 0.300Q366.090 0.300 364.305-1.455Q362.520-3.210 362.520-6.300L362.520-6.300L362.520-10.200Q362.520-13.290 364.305-15.045Q366.090-16.800 369-16.800L369-16.800Q370.950-16.800 372.405-16.020Q373.860-15.240 374.670-13.830Q375.480-12.420 375.480-10.500L375.480-10.500L375.480-7.560L365.160-7.560L365.160-6Q365.160-4.170 366.210-3.105Q367.260-2.040 369-2.040L369-2.040Q370.500-2.040 371.475-2.625Q372.450-3.210 372.660-4.200L372.660-4.200L375.360-4.200Q375.090-2.130 373.350-0.915Q371.610 0.300 369 0.300ZM365.160-10.500L365.160-9.660L372.840-9.660L372.840-10.500Q372.840-12.450 371.835-13.515Q370.830-14.580 369-14.580L369-14.580Q367.170-14.580 366.165-13.515Q365.160-12.450 365.160-10.500L365.160-10.500Z M387.240 0.300L387.240 0.300Q384.240 0.300 382.440-1.380Q380.640-3.060 380.640-6L380.640-6L380.640-10.500Q380.640-13.440 382.440-15.120Q384.240-16.800 387.240-16.800L387.240-16.800Q390.090-16.800 391.845-15.270Q393.600-13.740 393.690-11.100L393.690-11.100L390.990-11.100Q390.900-12.690 389.910-13.545Q388.920-14.400 387.240-14.400L387.240-14.400Q385.470-14.400 384.405-13.395Q383.340-12.390 383.340-10.530L383.340-10.530L383.340-6Q383.340-4.140 384.405-3.120Q385.470-2.100 387.240-2.100L387.240-2.100Q388.920-2.100 389.910-2.970Q390.900-3.840 390.990-5.400L390.990-5.400L393.690-5.400Q393.600-2.760 391.845-1.230Q390.090 0.300 387.240 0.300Z M411.450 0L406.650 0Q404.610 0 403.380-1.185Q402.150-2.370 402.150-4.350L402.150-4.350L402.150-14.040L397.410-14.040L397.410-16.500L402.150-16.500L402.150-21.150L404.850-21.150L404.850-16.500L411.600-16.500L411.600-14.040L404.850-14.040L404.850-4.350Q404.850-3.510 405.345-2.985Q405.840-2.460 406.650-2.460L406.650-2.460L411.450-2.460L411.450 0Z  M436.320 0L433.800 0L433.800-16.500L436.140-16.500L436.140-14.310L436.200-14.310Q436.350-15.420 437.085-16.110Q437.820-16.800 438.960-16.800L438.960-16.800Q440.040-16.800 440.790-16.170Q441.540-15.540 441.870-14.460L441.870-14.460L441.900-14.460Q442.110-15.540 442.845-16.170Q443.580-16.800 444.720-16.800L444.720-16.800Q446.310-16.800 447.255-15.615Q448.200-14.430 448.200-12.540L448.200-12.540L448.200 0L445.680 0L445.680-12.570Q445.680-13.560 445.200-14.145Q444.720-14.730 443.880-14.730L443.880-14.730Q443.070-14.730 442.590-14.160Q442.110-13.590 442.110-12.600L442.110-12.600L442.110 0L439.890 0L439.890-12.570Q439.890-13.560 439.410-14.145Q438.930-14.730 438.120-14.730L438.120-14.730Q437.280-14.730 436.800-14.160Q436.320-13.590 436.320-12.600L436.320-12.600L436.320 0Z M459 0.300L459 0.300Q456.090 0.300 454.305-1.455Q452.520-3.210 452.520-6.300L452.520-6.300L452.520-10.200Q452.520-13.290 454.305-15.045Q456.090-16.800 459-16.800L459-16.800Q460.950-16.800 462.405-16.020Q463.860-15.240 464.670-13.830Q465.480-12.420 465.480-10.500L465.480-10.500L465.480-7.560L455.160-7.560L455.160-6Q455.160-4.170 456.210-3.105Q457.260-2.040 459-2.040L459-2.040Q460.500-2.040 461.475-2.625Q462.450-3.210 462.660-4.200L462.660-4.200L465.360-4.200Q465.090-2.130 463.350-0.915Q461.610 0.300 459 0.300ZM455.160-10.500L455.160-9.660L462.840-9.660L462.840-10.500Q462.840-12.450 461.835-13.515Q460.830-14.580 459-14.580L459-14.580Q457.170-14.580 456.165-13.515Q455.160-12.450 455.160-10.500L455.160-10.500Z M472.320 0L469.800 0L469.800-16.500L472.140-16.500L472.140-14.310L472.200-14.310Q472.350-15.420 473.085-16.110Q473.820-16.800 474.960-16.800L474.960-16.800Q476.040-16.800 476.790-16.170Q477.540-15.540 477.870-14.460L477.870-14.460L477.900-14.460Q478.110-15.540 478.845-16.170Q479.580-16.800 480.720-16.800L480.720-16.800Q482.310-16.800 483.255-15.615Q484.200-14.430 484.200-12.540L484.200-12.540L484.200 0L481.680 0L481.680-12.570Q481.680-13.560 481.200-14.145Q480.720-14.730 479.880-14.730L479.880-14.730Q479.070-14.730 478.590-14.160Q478.110-13.590 478.110-12.600L478.110-12.600L478.110 0L475.890 0L475.890-12.570Q475.890-13.560 475.410-14.145Q474.930-14.730 474.120-14.730L474.120-14.730Q473.280-14.730 472.800-14.160Q472.320-13.590 472.320-12.600L472.320-12.600L472.320 0Z M495 0.240L495 0.240Q492.030 0.240 490.275-1.500Q488.520-3.240 488.520-6.360L488.520-6.360L488.520-10.140Q488.520-13.290 490.260-15.015Q492-16.740 495-16.740L495-16.740Q498-16.740 499.740-15.015Q501.480-13.290 501.480-10.140L501.480-10.140L501.480-6.360Q501.480-3.240 499.725-1.500Q497.970 0.240 495 0.240ZM495-2.160L495-2.160Q496.770-2.160 497.775-3.150Q498.780-4.140 498.780-6.060L498.780-6.060L498.780-10.440Q498.780-12.360 497.775-13.350Q496.770-14.340 495-14.340L495-14.340Q493.260-14.340 492.240-13.350Q491.220-12.360 491.220-10.440L491.220-10.440L491.220-6.060Q491.220-4.140 492.240-3.150Q493.260-2.160 495-2.160Z M510.060 0L507.360 0L507.360-16.500L510.060-16.500L510.060-13.350L510.120-13.350Q510.330-14.940 511.470-15.870Q512.610-16.800 514.530-16.800L514.530-16.800Q517.110-16.800 518.505-15.255Q519.900-13.710 519.900-10.860L519.900-10.860L519.900-9.450L517.200-9.450L517.200-10.860Q517.200-14.460 513.690-14.460L513.690-14.460Q511.920-14.460 510.990-13.440Q510.060-12.420 510.060-10.500L510.060-10.500L510.060 0Z M530.160 5.400L527.340 5.400L529.770-1.020L523.620-16.500L526.530-16.500L530.430-6.300Q530.670-5.700 530.880-5.040Q531.090-4.380 531.180-3.900L531.180-3.900Q531.270-4.380 531.480-5.040Q531.690-5.700 531.900-6.300L531.900-6.300L535.530-16.500L538.380-16.500L530.160 5.400Z" fill="#6A625A"></path>
</svg>