<svg xmlns="http://www.w3.org/2000/svg" viewBox="0 0 1280 640" width="1280" height="640">
  <rect width="1280" height="640" fill="#FBFAF8"></rect>
  <g transform="translate(243.56,220.16) scale(2.12)" fill="none"><g transform="translate(6,6) scale(0.8125)">
    <path d="M44 16 A20 20 0 1 1 20 16" fill="none" stroke="#BF5B38" stroke-width="5" stroke-linecap="round"></path>
    <path d="M20 8 L20 16 L28 16" fill="none" stroke="#BF5B38" stroke-width="5" stroke-linecap="round" stroke-linejoin="round"></path>
    <rect x="27.5" y="25" width="9" height="14" rx="1.6" fill="#211D1A"></rect>
  </g><path d="M81.270 43.300L81.270 43.300Q79.140 43.300 77.565 42.505Q75.990 41.710 75.120 40.255Q74.250 38.800 74.250 36.820L74.250 36.820L74.250 32.680Q74.250 30.700 75.120 29.245Q75.990 27.790 77.565 26.995Q79.140 26.200 81.270 26.200L81.270 26.200Q84.360 26.200 86.235 27.805Q88.110 29.410 88.200 32.170L88.200 32.170L84.510 32.170Q84.420 30.880 83.535 30.175Q82.650 29.470 81.270 29.470L81.270 29.470Q79.740 29.470 78.870 30.295Q78 31.120 78 32.650L78 32.650L78 36.820Q78 38.350 78.870 39.190Q79.740 40.030 81.270 40.030L81.270 40.030Q82.680 40.030 83.550 39.325Q84.420 38.620 84.510 37.330L84.510 37.330L88.200 37.330Q88.110 40.090 86.235 41.695Q84.360 43.300 81.270 43.300Z M106.170 43L101.070 43Q98.610 43 97.125 41.530Q95.640 40.060 95.640 37.660L95.640 37.660L95.640 24.490L90.210 24.490L90.210 21.100L99.390 21.100L99.390 37.570Q99.390 38.500 99.915 39.055Q100.440 39.610 101.340 39.610L101.340 39.610L106.170 39.610L106.170 43Z M113.970 43.300L113.970 43.300Q111.450 43.300 109.995 41.875Q108.540 40.450 108.540 38.140L108.540 38.140Q108.540 35.740 110.190 34.315Q111.840 32.890 114.720 32.890L114.720 32.890L118.740 32.890L118.740 31.720Q118.740 29.230 115.830 29.230L115.830 29.230Q114.510 29.230 113.730 29.740Q112.950 30.250 112.860 31.180L112.860 31.180L109.260 31.180Q109.380 28.960 111.135 27.580Q112.890 26.200 115.860 26.200L115.860 26.200Q119.010 26.200 120.750 27.670Q122.490 29.140 122.490 31.810L122.490 31.810L122.490 43L118.830 43L118.830 39.910Q118.620 41.500 117.330 42.400Q116.040 43.300 113.970 43.300ZM115.170 40.240L115.170 40.240Q116.820 40.240 117.780 39.430Q118.740 38.620 118.740 37.270L118.740 37.270L118.740 35.320L114.900 35.320Q113.670 35.320 112.950 36.010Q112.230 36.700 112.230 37.780L112.230 37.780Q112.230 38.890 112.995 39.565Q113.760 40.240 115.170 40.240Z M133.200 43.300L133.200 43.300Q130.050 43.300 128.250 41.545Q126.450 39.790 126.450 36.760L126.450 36.760L126.450 26.500L130.200 26.500L130.200 36.730Q130.200 38.290 130.980 39.160Q131.760 40.030 133.200 40.030L133.200 40.030Q134.610 40.030 135.405 39.160Q136.200 38.290 136.200 36.730L136.200 36.730L136.200 26.500L139.950 26.500L139.950 36.760Q139.950 39.790 138.120 41.545Q136.290 43.300 133.200 43.300Z M149.100 43.300L149.100 43.300Q146.700 43.300 145.215 41.590Q143.730 39.880 143.730 37L143.730 37L143.730 32.530Q143.730 29.620 145.200 27.910Q146.670 26.200 149.100 26.200L149.100 26.200Q150.810 26.200 151.995 27.070Q153.180 27.940 153.660 29.500L153.660 29.500L153.540 25.720L153.540 21.100L157.290 21.100L157.290 43L153.630 43L153.630 40Q153.180 41.560 152.010 42.430Q150.840 43.300 149.100 43.300ZM150.510 40.060L150.510 40.060Q151.950 40.060 152.745 39.190Q153.540 38.320 153.540 36.730L153.540 36.730L153.540 32.770Q153.540 31.180 152.745 30.310Q151.950 29.440 150.510 29.440L150.510 29.440Q149.070 29.440 148.275 30.220Q147.480 31 147.480 32.620L147.480 32.620L147.480 36.880Q147.480 38.500 148.275 39.280Q149.070 40.060 150.510 40.060Z M168.030 43.300L168.030 43.300Q165.930 43.300 164.370 42.490Q162.810 41.680 161.955 40.195Q161.100 38.710 161.100 36.700L161.100 36.700L161.100 32.800Q161.100 30.790 161.955 29.305Q162.810 27.820 164.370 27.010Q165.930 26.200 168.030 26.200L168.030 26.200Q170.100 26.200 171.645 27.010Q173.190 27.820 174.045 29.275Q174.900 30.730 174.900 32.680L174.900 32.680L174.900 35.680L164.700 35.680L164.700 36.820Q164.700 38.500 165.570 39.355Q166.440 40.210 168.030 40.210L168.030 40.210Q169.200 40.210 170.025 39.805Q170.850 39.400 171.000 38.620L171.000 38.620L174.720 38.620Q174.330 40.750 172.500 42.025Q170.670 43.300 168.030 43.300ZM164.700 32.680L164.700 32.680L164.700 33.250L171.300 33.220L171.300 32.650Q171.300 30.940 170.460 30.010Q169.620 29.080 168.030 29.080L168.030 29.080Q166.380 29.080 165.540 30.025Q164.700 30.970 164.700 32.680Z M190.200 34.840L180.600 34.840L180.600 31.360L190.200 31.360L190.200 34.840Z" fill="#211D1A"></path><path d="M198.510 43L195.210 43L195.210 26.500L198.330 26.500L198.330 28.900L198.420 28.900Q198.510 27.700 199.260 26.950Q200.010 26.200 201.150 26.200L201.150 26.200Q202.260 26.200 203.040 26.905Q203.820 27.610 204.090 28.810L204.090 28.810Q204.210 27.610 204.975 26.905Q205.740 26.200 206.910 26.200L206.910 26.200Q208.410 26.200 209.400 27.385Q210.390 28.570 210.390 30.430L210.390 30.430L210.390 43L207.090 43L207.090 30.700Q207.090 29.890 206.715 29.425Q206.340 28.960 205.650 28.960L205.650 28.960Q204.300 28.960 204.300 30.700L204.300 30.700L204.300 43L201.300 43L201.300 30.700Q201.300 29.890 200.955 29.425Q200.610 28.960 199.950 28.960L199.950 28.960Q198.510 28.960 198.510 30.700L198.510 30.700L198.510 43Z M220.230 43.300L220.230 43.300Q218.130 43.300 216.570 42.490Q215.010 41.680 214.155 40.195Q213.300 38.710 213.300 36.700L213.300 36.700L213.300 32.800Q213.300 30.790 214.155 29.305Q215.010 27.820 216.570 27.010Q218.130 26.200 220.230 26.200L220.230 26.200Q222.300 26.200 223.845 27.010Q225.390 27.820 226.245 29.275Q227.100 30.730 227.100 32.680L227.100 32.680L227.100 35.680L216.900 35.680L216.900 36.820Q216.900 38.500 217.770 39.355Q218.640 40.210 220.230 40.210L220.230 40.210Q221.400 40.210 222.225 39.805Q223.050 39.400 223.200 38.620L223.200 38.620L226.920 38.620Q226.530 40.750 224.700 42.025Q222.870 43.300 220.230 43.300ZM216.900 32.680L216.900 32.680L216.900 33.250L223.500 33.220L223.500 32.650Q223.500 30.940 222.660 30.010Q221.820 29.080 220.230 29.080L220.230 29.080Q218.580 29.080 217.740 30.025Q216.900 30.970 216.900 32.680Z M233.310 43L230.010 43L230.010 26.500L233.130 26.500L233.130 28.900L233.220 28.900Q233.310 27.700 234.060 26.950Q234.810 26.200 235.950 26.200L235.950 26.200Q237.060 26.200 237.840 26.905Q238.620 27.610 238.890 28.810L238.890 28.810Q239.010 27.610 239.775 26.905Q240.540 26.200 241.710 26.200L241.710 26.200Q243.210 26.200 244.200 27.385Q245.190 28.570 245.190 30.430L245.190 30.430L245.190 43L241.890 43L241.890 30.700Q241.890 29.890 241.515 29.425Q241.140 28.960 240.450 28.960L240.450 28.960Q239.100 28.960 239.100 30.700L239.100 30.700L239.100 43L236.100 43L236.100 30.700Q236.100 29.890 235.755 29.425Q235.410 28.960 234.750 28.960L234.750 28.960Q233.310 28.960 233.310 30.700L233.310 30.700L233.310 43Z M255.000 43.270L255.000 43.270Q251.820 43.270 249.960 41.485Q248.100 39.700 248.100 36.670L248.100 36.670L248.100 32.830Q248.100 29.770 249.960 28Q251.820 26.230 255.000 26.230L255.000 26.230Q258.180 26.230 260.040 28Q261.900 29.770 261.900 32.830L261.900 32.830L261.900 36.670Q261.900 39.700 260.040 41.485Q258.180 43.270 255.000 43.270ZM255.000 40L255.000 40Q256.500 40 257.325 39.175Q258.150 38.350 258.150 36.790L258.150 36.790L258.150 32.710Q258.150 31.150 257.325 30.325Q256.500 29.500 255.000 29.500L255.000 29.500Q253.500 29.500 252.675 30.325Q251.850 31.150 251.850 32.710L251.850 32.710L251.850 36.790Q251.850 38.350 252.675 39.175Q253.500 40 255.000 40Z M270.060 43L266.310 43L266.310 26.500L269.970 26.500L269.970 29.710Q270.270 28.090 271.455 27.145Q272.640 26.200 274.530 26.200L274.530 26.200Q277.050 26.200 278.460 27.820Q279.870 29.440 279.870 32.350L279.870 32.350L279.870 33.910L276.120 33.910L276.120 32.530Q276.120 31.030 275.340 30.235Q274.560 29.440 273.120 29.440L273.120 29.440Q271.620 29.440 270.840 30.340Q270.060 31.240 270.060 32.890L270.060 32.890L270.060 43Z M289.680 48.400L285.750 48.400L288.090 42.100L281.880 26.500L285.840 26.500L289.020 34.930Q289.290 35.680 289.560 36.565Q289.830 37.450 289.950 38.200L289.950 38.200Q290.040 37.450 290.295 36.565Q290.550 35.680 290.820 34.930L290.820 34.930L293.760 26.500L297.720 26.500L289.680 48.400Z" fill="#BF5B38"></path><path d="M312 34.840L302.400 34.840L302.400 31.360L312 31.360L312 34.840Z M321.810 43L318.060 43L318.060 21.100L321.810 21.100L321.810 32.980L324.450 32.980L328.380 26.500L332.550 26.500L327.660 34.480L332.730 43L328.470 43L324.450 36.160L321.810 36.160L321.810 43Z M349.740 43L335.280 43L335.280 39.610L340.920 39.610L340.920 29.890L335.880 29.890L335.880 26.500L344.670 26.500L344.670 39.610L349.740 39.610L349.740 43ZM342.540 23.740L342.540 23.740Q341.400 23.740 340.740 23.155Q340.080 22.570 340.080 21.580L340.080 21.580Q340.080 20.590 340.740 20.005Q341.400 19.420 342.540 19.420L342.540 19.420Q343.680 19.420 344.340 20.005Q345.000 20.590 345.000 21.580L345.000 21.580Q345.000 22.570 344.340 23.155Q343.680 23.740 342.540 23.740Z M366.210 43L361.050 43Q358.740 43 357.375 41.665Q356.010 40.330 356.010 38.050L356.010 38.050L356.010 29.890L351.450 29.890L351.450 26.500L356.010 26.500L356.010 21.850L359.790 21.850L359.790 26.500L366.360 26.500L366.360 29.890L359.790 29.890L359.790 37.960Q359.790 38.680 360.195 39.145Q360.600 39.610 361.320 39.610L361.320 39.610L366.210 39.610L366.210 43Z" fill="#211D1A"></path></g>
  <path transform="translate(226.00,407.84)" d="M5.460 0L2.760 0L2.760-21.900L9.810-21.900Q12.870-21.900 14.685-20.145Q16.500-18.390 16.500-15.450L16.500-15.450Q16.500-12.510 14.685-10.755Q12.870-9 9.810-9L9.810-9L5.460-9L5.460 0ZM5.460-19.470L5.460-11.430L9.810-11.430Q11.580-11.430 12.645-12.525Q13.710-13.620 13.710-15.450L13.710-15.450Q13.710-17.310 12.645-18.390Q11.580-19.470 9.810-19.470L9.810-19.470L5.460-19.470Z M27 0.300L27 0.300Q24.090 0.300 22.305-1.455Q20.520-3.210 20.520-6.300L20.520-6.300L20.520-10.200Q20.520-13.290 22.305-15.045Q24.090-16.800 27-16.800L27-16.800Q28.950-16.800 30.405-16.020Q31.860-15.240 32.670-13.830Q33.480-12.420 33.480-10.500L33.480-10.500L33.480-7.560L23.160-7.560L23.160-6Q23.160-4.170 24.210-3.105Q25.260-2.040 27-2.040L27-2.040Q28.500-2.040 29.475-2.625Q30.450-3.210 30.660-4.200L30.660-4.200L33.360-4.200Q33.090-2.130 31.350-0.915Q29.610 0.300 27 0.300ZM23.160-10.500L23.160-9.660L30.840-9.660L30.840-10.500Q30.840-12.450 29.835-13.515Q28.830-14.580 27-14.580L27-14.580Q25.170-14.580 24.165-13.515Q23.160-12.450 23.160-10.500L23.160-10.500Z M42.060 0L39.360 0L39.360-16.500L42.060-16.500L42.060-13.350L42.120-13.350Q42.330-14.940 43.470-15.870Q44.610-16.800 46.530-16.800L46.530-16.800Q49.110-16.800 50.505-15.255Q51.900-13.710 51.900-10.860L51.900-10.860L51.900-9.450L49.200-9.450L49.200-10.860Q49.200-14.460 45.690-14.460L45.690-14.460Q43.920-14.460 42.990-13.440Q42.060-12.420 42.060-10.500L42.060-10.500L42.060 0Z M63.660 0.240L62.340 0.240Q59.580 0.240 58.065-1.005Q56.550-2.250 56.550-4.530L56.550-4.530L59.250-4.530Q59.250-3.390 60.060-2.745Q60.870-2.100 62.340-2.100L62.340-2.100L63.660-2.100Q65.160-2.100 65.985-2.760Q66.810-3.420 66.810-4.620L66.810-4.620Q66.810-6.750 64.860-7.020L64.860-7.020L60.300-7.680Q58.620-7.920 57.690-9.075Q56.760-10.230 56.760-12.120L56.760-12.120Q56.760-14.280 58.245-15.510Q59.730-16.740 62.340-16.740L62.340-16.740L63.660-16.740Q66.060-16.740 67.575-15.555Q69.090-14.370 69.210-12.450L69.210-12.450L66.480-12.450Q66.420-13.320 65.655-13.890Q64.890-14.460 63.660-14.460L63.660-14.460L62.340-14.460Q60.960-14.460 60.180-13.830Q59.400-13.200 59.400-12.120L59.400-12.120Q59.400-10.380 60.990-10.140L60.990-10.140L65.250-9.540Q69.450-8.940 69.450-4.620L69.450-4.620Q69.450-2.310 67.935-1.035Q66.420 0.240 63.660 0.240L63.660 0.240Z M88.650 0L74.550 0L74.550-2.460L80.400-2.460L80.400-14.040L75.150-14.040L75.150-16.500L83.100-16.500L83.100-2.460L88.650-2.460L88.650 0ZM81.450-19.470L81.450-19.470Q80.460-19.470 79.890-19.980Q79.320-20.490 79.320-21.360L79.320-21.360Q79.320-22.260 79.890-22.785Q80.460-23.310 81.450-23.310L81.450-23.310Q82.440-23.310 83.010-22.785Q83.580-22.260 83.580-21.360L83.580-21.360Q83.580-20.490 83.010-19.980Q82.440-19.470 81.450-19.470Z M99.660 0.240L98.340 0.240Q95.580 0.240 94.065-1.005Q92.550-2.250 92.550-4.530L92.550-4.530L95.250-4.530Q95.250-3.390 96.060-2.745Q96.870-2.100 98.340-2.100L98.340-2.100L99.660-2.100Q101.160-2.100 101.985-2.760Q102.810-3.420 102.810-4.620L102.810-4.620Q102.810-6.750 100.860-7.020L100.860-7.020L96.300-7.680Q94.620-7.920 93.690-9.075Q92.760-10.230 92.760-12.120L92.760-12.120Q92.760-14.280 94.245-15.510Q95.730-16.740 98.340-16.740L98.340-16.740L99.660-16.740Q102.060-16.740 103.575-15.555Q105.090-14.370 105.210-12.450L105.210-12.450L102.480-12.450Q102.420-13.320 101.655-13.890Q100.890-14.460 99.660-14.460L99.660-14.460L98.340-14.460Q96.960-14.460 96.180-13.830Q95.400-13.200 95.400-12.120L95.400-12.120Q95.400-10.380 96.990-10.140L96.990-10.140L101.250-9.540Q105.450-8.940 105.450-4.620L105.450-4.620Q105.450-2.310 103.935-1.035Q102.420 0.240 99.660 0.240L99.660 0.240Z M123.450 0L118.650 0Q116.610 0 115.380-1.185Q114.150-2.370 114.150-4.350L114.150-4.350L114.150-14.040L109.410-14.040L109.410-16.500L114.150-16.500L114.150-21.150L116.850-21.150L116.850-16.500L123.600-16.500L123.600-14.040L116.850-14.040L116.850-4.350Q116.850-3.510 117.345-2.985Q117.840-2.460 118.650-2.460L118.650-2.460L123.450-2.460L123.450 0Z M135 0.300L135 0.300Q132.090 0.300 130.305-1.455Q128.520-3.210 128.520-6.300L128.520-6.300L128.520-10.200Q128.520-13.290 130.305-15.045Q132.090-16.800 135-16.800L135-16.800Q136.950-16.800 138.405-16.020Q139.860-15.240 140.670-13.830Q141.480-12.420 141.480-10.500L141.480-10.500L141.480-7.560L131.160-7.560L131.160-6Q131.160-4.170 132.210-3.105Q133.260-2.040 135-2.040L135-2.040Q136.500-2.040 137.475-2.625Q138.450-3.210 138.660-4.200L138.660-4.200L141.360-4.200Q141.090-2.130 139.350-0.915Q137.610 0.300 135 0.300ZM131.160-10.500L131.160-9.660L138.840-9.660L138.840-10.500Q138.840-12.450 137.835-13.515Q136.830-14.580 135-14.580L135-14.580Q133.170-14.580 132.165-13.515Q131.160-12.450 131.160-10.500L131.160-10.500Z M149.460 0L146.760 0L146.760-16.500L149.460-16.500L149.460-13.350L149.490-13.350Q149.700-15 150.840-15.900Q151.980-16.800 153.870-16.800L153.870-16.800Q156.360-16.800 157.830-15.270Q159.300-13.740 159.300-11.100L159.300-11.100L159.300 0L156.600 0L156.600-10.620Q156.600-12.510 155.655-13.515Q154.710-14.520 153.090-14.520L153.090-14.520Q151.410-14.520 150.435-13.470Q149.460-12.420 149.460-10.500L149.460-10.500L149.460 0Z M177.450 0L172.650 0Q170.610 0 169.380-1.185Q168.150-2.370 168.150-4.350L168.150-4.350L168.150-14.040L163.410-14.040L163.410-16.500L168.150-16.500L168.150-21.150L170.850-21.150L170.850-16.500L177.600-16.500L177.600-14.040L170.850-14.040L170.850-4.350Q170.850-3.510 171.345-2.985Q171.840-2.460 172.650-2.460L172.650-2.460L177.450-2.460L177.450 0Z M189.090 4.800L186.300 4.800L187.950-4.380L191.190-4.380L189.090 4.800Z  M221.460 5.400L218.760 5.400L218.760-16.500L221.460-16.500L221.460-13.350L221.490-13.350Q221.700-14.970 222.900-15.885Q224.100-16.800 225.960-16.800L225.960-16.800Q228.450-16.800 229.920-15.165Q231.390-13.530 231.390-10.680L231.390-10.680L231.390-5.850Q231.390-3 229.920-1.350Q228.450 0.300 225.960 0.300L225.960 0.300Q224.100 0.300 222.900-0.630Q221.700-1.560 221.490-3.150L221.490-3.150L221.400-3.150L221.460 0.600L221.460 5.400ZM225.060-2.040L225.060-2.040Q226.770-2.040 227.730-2.940Q228.690-3.840 228.690-5.850L228.690-5.850L228.690-10.650Q228.690-12.690 227.730-13.575Q226.770-14.460 225.060-14.460L225.060-14.460Q223.410-14.460 222.435-13.410Q221.460-12.360 221.460-10.500L221.460-10.500L221.460-6Q221.460-4.140 222.435-3.090Q223.410-2.040 225.060-2.040Z M243 0.300L243 0.300Q240.090 0.300 238.305-1.455Q236.520-3.210 236.520-6.300L236.520-6.300L236.520-10.200Q236.520-13.290 238.305-15.045Q240.090-16.800 243-16.800L243-16.800Q244.950-16.800 246.405-16.020Q247.860-15.240 248.670-13.830Q249.480-12.420 249.480-10.500L249.480-10.500L249.480-7.560L239.160-7.560L239.160-6Q239.160-4.170 240.210-3.105Q241.260-2.040 243-2.040L243-2.040Q244.500-2.040 245.475-2.625Q246.450-3.210 246.660-4.200L246.660-4.200L249.360-4.200Q249.090-2.130 247.350-0.915Q245.610 0.300 243 0.300ZM239.160-10.500L239.160-9.660L246.840-9.660L246.840-10.500Q246.840-12.450 245.835-13.515Q244.830-14.580 243-14.580L243-14.580Q241.170-14.580 240.165-13.515Q239.160-12.450 239.160-10.500L239.160-10.500Z M258.060 0L255.360 0L255.360-16.500L258.060-16.500L258.060-13.350L258.120-13.350Q258.330-14.940 259.470-15.870Q260.610-16.800 262.530-16.800L262.530-16.800Q265.110-16.800 266.505-15.255Q267.900-13.710 267.900-10.860L267.900-10.860L267.900-9.450L265.200-9.450L265.200-10.860Q265.200-14.460 261.690-14.460L261.690-14.460Q259.920-14.460 258.990-13.440Q258.060-12.420 258.060-10.500L258.060-10.500L258.060 0Z M283.800-8.700L274.200-8.700L274.200-11.100L283.800-11.100L283.800-8.700Z M293.460 5.400L290.760 5.400L290.760-16.500L293.460-16.500L293.460-13.350L293.490-13.350Q293.700-14.970 294.900-15.885Q296.100-16.800 297.960-16.800L297.960-16.800Q300.450-16.800 301.920-15.165Q303.390-13.530 303.390-10.680L303.390-10.680L303.390-5.850Q303.390-3 301.920-1.350Q300.450 0.300 297.960 0.300L297.960 0.300Q296.100 0.300 294.900-0.630Q293.700-1.560 293.490-3.150L293.490-3.150L293.400-3.150L293.460 0.600L293.460 5.400ZM297.060-2.040L297.060-2.040Q298.770-2.040 299.730-2.940Q300.690-3.840 300.690-5.850L300.690-5.850L300.690-10.650Q300.690-12.690 299.730-13.575Q298.770-14.460 297.060-14.460L297.060-14.460Q295.410-14.460 294.435-13.410Q293.460-12.360 293.460-10.500L293.460-10.500L293.460-6Q293.460-4.140 294.435-3.090Q295.410-2.040 297.060-2.040Z M312.060 0L309.360 0L309.360-16.500L312.060-16.500L312.060-13.350L312.120-13.350Q312.330-14.940 313.470-15.870Q314.610-16.800 316.530-16.800L316.530-16.800Q319.110-16.800 320.505-15.255Q321.900-13.710 321.900-10.860L321.900-10.860L321.900-9.450L319.200-9.450L319.200-10.860Q319.200-14.460 315.690-14.460L315.690-14.460Q313.920-14.460 312.990-13.440Q312.060-12.420 312.060-10.500L312.060-10.500L312.060 0Z M333 0.240L333 0.240Q330.030 0.240 328.275-1.500Q326.520-3.240 326.520-6.360L326.520-6.360L326.520-10.140Q326.520-13.290 328.260-15.015Q330-16.740 333-16.740L333-16.740Q336-16.740 337.740-15.015Q339.480-13.290 339.480-10.140L339.480-10.140L339.480-6.360Q339.480-3.240 337.725-1.500Q335.970 0.240 333 0.240ZM333-2.160L333-2.160Q334.770-2.160 335.775-3.150Q336.780-4.140 336.780-6.060L336.780-6.060L336.780-10.440Q336.780-12.360 335.775-13.350Q334.770-14.340 333-14.340L333-14.340Q331.260-14.340 330.240-13.350Q329.220-12.360 329.220-10.440L329.220-10.440L329.220-6.060Q329.220-4.140 330.240-3.150Q331.260-2.160 333-2.160Z M348.420 5.400L344.700 5.400L344.700 2.940L348.420 2.940Q350.280 2.940 351.315 1.920Q352.350 0.900 352.350-0.930L352.350-0.930L352.350-14.040L344.550-14.040L344.550-16.500L355.050-16.500L355.050-0.930Q355.050 1.980 353.250 3.690Q351.450 5.400 348.420 5.400L348.420 5.400ZM353.400-19.470L353.400-19.470Q352.410-19.470 351.840-19.980Q351.270-20.490 351.270-21.360L351.270-21.360Q351.270-22.260 351.840-22.785Q352.410-23.310 353.400-23.310L353.400-23.310Q354.390-23.310 354.960-22.785Q355.530-22.260 355.530-21.360L355.530-21.360Q355.530-20.490 354.960-19.980Q354.390-19.470 353.400-19.470Z M369 0.300L369 0.300Q366.090 0.300 364.305-1.455Q362.520-3.210 362.520-6.300L362.520-6.300L362.520-10.200Q362.520-13.290 364.305-15.045Q366.090-16.800 369-16.800L369-16.800Q370.950-16.800 372.405-16.020Q373.860-15.240 374.670-13.830Q375.480-12.420 375.480-10.500L375.480-10.500L375.480-7.560L365.160-7.560L365.160-6Q365.160-4.170 366.210-3.105Q367.260-2.040 369-2.040L369-2.040Q370.500-2.040 371.475-2.625Q372.450-3.210 372.660-4.200L372.660-4.200L375.360-4.200Q375.090-2.130 373.350-0.915Q371.610 0.300 369 0.300ZM365.160-10.500L365.160-9.660L372.840-9.660L372.840-10.500Q372.840-12.450 371.835-13.515Q370.830-14.580 369-14.580L369-14.580Q367.170-14.580 366.165-13.515Q365.160-12.450 365.160-10.500L365.160-10.500Z M387.240 0.300L387.240 0.300Q384.240 0.300 382.440-1.380Q380.640-3.060 380.640-6L380.640-6L380.640-10.500Q380.640-13.440 382.440-15.120Q384.240-16.800 387.240-16.800L387.240-16.800Q390.090-16.800 391.845-15.270Q393.600-13.740 393.690-11.100L393.690-11.100L390.990-11.100Q390.900-12.690 389.910-13.545Q388.920-14.400 387.240-14.400L387.240-14.400Q385.470-14.400 384.405-13.395Q383.340-12.390 383.340-10.530L383.340-10.530L383.340-6Q383.340-4.140 384.405-3.120Q385.470-2.100 387.240-2.100L387.240-2.100Q388.920-2.100 389.910-2.970Q390.900-3.840 390.990-5.400L390.990-5.400L393.690-5.400Q393.600-2.760 391.845-1.230Q390.090 0.300 387.240 0.300Z M411.450 0L406.650 0Q404.610 0 403.380-1.185Q402.150-2.370 402.150-4.350L402.150-4.350L402.150-14.040L397.410-14.040L397.410-16.500L402.150-16.500L402.150-21.150L404.850-21.150L404.850-16.500L411.600-16.500L411.600-14.040L404.850-14.040L404.850-4.350Q404.850-3.510 405.345-2.985Q405.840-2.460 406.650-2.460L406.650-2.460L411.450-2.460L411.450 0Z  M436.320 0L433.800 0L433.800-16.500L436.140-16.500L436.140-14.310L436.200-14.310Q436.350-15.420 437.085-16.110Q437.820-16.800 438.960-16.800L438.960-16.800Q440.040-16.800 440.790-16.170Q441.540-15.540 441.870-14.460L441.870-14.460L441.900-14.460Q442.110-15.540 442.845-16.170Q443.580-16.800 444.720-16.800L444.720-16.800Q446.310-16.800 447.255-15.615Q448.200-14.430 448.200-12.540L448.200-12.540L448.200 0L445.680 0L445.680-12.570Q445.680-13.560 445.200-14.145Q444.720-14.730 443.880-14.730L443.880-14.730Q443.070-14.730 442.590-14.160Q442.110-13.590 442.110-12.600L442.110-12.600L442.110 0L439.890 0L439.890-12.570Q439.890-13.560 439.410-14.145Q438.930-14.730 438.120-14.730L438.120-14.730Q437.280-14.730 436.800-14.160Q436.320-13.590 436.320-12.600L436.320-12.600L436.320 0Z M459 0.300L459 0.300Q456.090 0.300 454.305-1.455Q452.520-3.210 452.520-6.300L452.520-6.300L452.520-10.200Q452.520-13.290 454.305-15.045Q456.090-16.800 459-16.800L459-16.800Q460.950-16.800 462.405-16.020Q463.860-15.240 464.670-13.830Q465.480-12.420 465.480-10.500L465.480-10.500L465.480-7.560L455.160-7.560L455.160-6Q455.160-4.170 456.210-3.105Q457.260-2.040 459-2.040L459-2.040Q460.500-2.040 461.475-2.625Q462.450-3.210 462.660-4.200L462.660-4.200L465.360-4.200Q465.090-2.130 463.350-0.915Q461.610 0.300 459 0.300ZM455.160-10.500L455.160-9.660L462.840-9.660L462.840-10.500Q462.840-12.450 461.835-13.515Q460.830-14.580 459-14.580L459-14.580Q457.170-14.580 456.165-13.515Q455.160-12.450 455.160-10.500L455.160-10.500Z M472.320 0L469.800 0L469.800-16.500L472.140-16.500L472.140-14.310L472.200-14.310Q472.350-15.420 473.085-16.110Q473.820-16.800 474.960-16.800L474.960-16.800Q476.040-16.800 476.790-16.170Q477.540-15.540 477.870-14.460L477.870-14.460L477.900-14.460Q478.110-15.540 478.845-16.170Q479.580-16.800 480.720-16.800L480.720-16.800Q482.310-16.800 483.255-15.615Q484.200-14.430 484.200-12.540L484.200-12.540L484.200 0L481.680 0L481.680-12.570Q481.680-13.560 481.200-14.145Q480.720-14.730 479.880-14.730L479.880-14.730Q479.070-14.730 478.590-14.160Q478.110-13.590 478.110-12.600L478.110-12.600L478.110 0L475.890 0L475.890-12.570Q475.890-13.560 475.410-14.145Q474.930-14.730 474.120-14.730L474.120-14.730Q473.280-14.730 472.800-14.160Q472.320-13.590 472.320-12.600L472.320-12.600L472.320 0Z M495 0.240L495 0.240Q492.030 0.240 490.275-1.500Q488.520-3.240 488.520-6.360L488.520-6.360L488.520-10.140Q488.520-13.290 490.260-15.015Q492-16.740 495-16.740L495-16.740Q498-16.740 499.740-15.015Q501.480-13.290 501.480-10.140L501.480-10.140L501.480-6.360Q501.480-3.240 499.725-1.500Q497.970 0.240 495 0.240ZM495-2.160L495-2.160Q496.770-2.160 497.775-3.150Q498.780-4.140 498.780-6.060L498.780-6.060L498.780-10.440Q498.780-12.360 497.775-13.350Q496.770-14.340 495-14.340L495-14.340Q493.260-14.340 492.240-13.350Q491.220-12.360 491.220-10.440L491.220-10.440L491.220-6.060Q491.220-4.140 492.240-3.150Q493.260-2.160 495-2.160Z M510.060 0L507.360 0L507.360-16.500L510.060-16.500L510.060-13.350L510.120-13.350Q510.330-14.940 511.470-15.870Q512.610-16.800 514.530-16.800L514.530-16.800Q517.110-16.800 518.505-15.255Q519.900-13.710 519.900-10.860L519.900-10.860L519.900-9.450L517.200-9.450L517.200-10.860Q517.200-14.460 513.690-14.460L513.690-14.460Q511.920-14.460 510.990-13.440Q510.060-12.420 510.060-10.500L510.060-10.500L510.060 0Z M530.160 5.400L527.340 5.400L529.770-1.020L523.620-16.500L526.530-16.500L530.430-6.300Q530.670-5.700 530.880-5.040Q531.090-4.380 531.180-3.900L531.180-3.900Q531.270-4.380 531.480-5.040Q531.690-5.700 531.900-6.300L531.900-6.300L535.530-16.500L538.380-16.500L530.160 5.400Z  M567.150 0L564.450 0L564.450-11.790L559.650-11.790L559.650-14.250L564.450-14.250L564.450-17.700Q564.450-19.650 565.680-20.775Q566.910-21.900 569.070-21.900L569.070-21.900L573.900-21.900L573.900-19.440L569.070-19.440Q567.150-19.440 567.150-17.700L567.150-17.700L567.150-14.250L573.900-14.250L573.900-11.790L567.150-11.790L567.150 0Z M585 0.240L585 0.240Q582.030 0.240 580.275-1.500Q578.520-3.240 578.520-6.360L578.520-6.360L578.520-10.140Q578.520-13.290 580.260-15.015Q582-16.740 585-16.740L585-16.740Q588-16.740 589.740-15.015Q591.480-13.290 591.480-10.140L591.480-10.140L591.480-6.360Q591.480-3.240 589.725-1.500Q587.970 0.240 585 0.240ZM585-2.160L585-2.160Q586.770-2.160 587.775-3.150Q588.780-4.140 588.780-6.060L588.780-6.060L588.780-10.440Q588.780-12.360 587.775-13.350Q586.770-14.340 585-14.340L585-14.340Q583.260-14.340 582.240-13.350Q581.220-12.360 581.220-10.440L581.220-10.440L581.220-6.060Q581.220-4.140 582.240-3.150Q583.260-2.160 585-2.160Z M600.060 0L597.360 0L597.360-16.500L600.060-16.500L600.060-13.350L600.120-13.350Q600.330-14.940 601.470-15.870Q602.610-16.800 604.530-16.800L604.530-16.800Q607.110-16.800 608.505-15.255Q609.900-13.710 609.900-10.860L609.900-10.860L609.900-9.450L607.200-9.450L607.200-10.860Q607.200-14.460 603.690-14.460L603.690-14.460Q601.920-14.460 600.990-13.440Q600.060-12.420 600.060-10.500L600.060-10.500L600.060 0Z  M639.240 0.300L639.240 0.300Q636.240 0.300 634.500-1.380Q632.760-3.060 632.760-6L632.760-6L632.760-15.900Q632.760-18.840 634.500-20.520Q636.240-22.200 639.240-22.200L639.240-22.200Q642.180-22.200 643.920-20.505Q645.660-18.810 645.660-15.900L645.660-15.900L642.960-15.900Q642.960-17.760 641.985-18.765Q641.010-19.770 639.240-19.770L639.240-19.770Q637.470-19.770 636.465-18.765Q635.460-17.760 635.460-15.900L635.460-15.900L635.460-6Q635.460-4.140 636.465-3.135Q637.470-2.130 639.240-2.130L639.240-2.130Q641.010-2.130 641.985-3.135Q642.960-4.140 642.960-6L642.960-6L645.660-6Q645.660-3.090 643.920-1.395Q642.180 0.300 639.240 0.300Z M664.500 0L659.400 0Q657.210 0 655.905-1.275Q654.600-2.550 654.600-4.650L654.600-4.650L654.600-19.440L648.900-19.440L648.900-21.900L657.300-21.900L657.300-4.650Q657.300-3.630 657.870-3.045Q658.440-2.460 659.400-2.460L659.400-2.460L664.500-2.460L664.500 0Z M673.560 0.300L673.560 0.300Q671.010 0.300 669.510-1.125Q668.010-2.550 668.010-4.860L668.010-4.860Q668.010-6.390 668.700-7.530Q669.390-8.670 670.620-9.315Q671.850-9.960 673.440-9.960L673.440-9.960L678.540-9.960L678.540-11.250Q678.540-14.460 675.030-14.460L675.030-14.460Q673.470-14.460 672.510-13.890Q671.550-13.320 671.490-12.300L671.490-12.300L668.790-12.300Q668.940-14.250 670.605-15.525Q672.270-16.800 675.030-16.800L675.030-16.800Q678.030-16.800 679.635-15.360Q681.240-13.920 681.240-11.340L681.240-11.340L681.240 0L678.570 0L678.570-3L678.510-3Q678.270-1.470 676.980-0.585Q675.690 0.300 673.560 0.300ZM674.220-1.980L674.220-1.980Q676.200-1.980 677.370-2.940Q678.540-3.900 678.540-5.550L678.540-5.550L678.540-7.860L673.740-7.860Q672.420-7.860 671.595-7.065Q670.770-6.270 670.770-4.950L670.770-4.950Q670.770-3.570 671.685-2.775Q672.600-1.980 674.220-1.980Z M692.970 0.300L692.970 0.300Q690.120 0.300 688.410-1.395Q686.700-3.090 686.700-6L686.700-6L686.700-16.500L689.400-16.500L689.400-6Q689.400-4.200 690.360-3.135Q691.320-2.070 692.970-2.070L692.970-2.070Q694.650-2.070 695.625-3.135Q696.600-4.200 696.600-6L696.600-6L696.600-16.500L699.300-16.500L699.300-6Q699.300-3.090 697.560-1.395Q695.820 0.300 692.970 0.300Z M710.040 0.300L710.040 0.300Q707.580 0.300 706.095-1.350Q704.610-3 704.610-5.820L704.610-5.820L704.610-10.650Q704.610-13.500 706.080-15.150Q707.550-16.800 710.040-16.800L710.040-16.800Q711.900-16.800 713.115-15.870Q714.330-14.940 714.570-13.350L714.570-13.350L714.600-13.350L714.540-17.100L714.540-21.900L717.240-21.900L717.240 0L714.540 0L714.540-3.150L714.510-3.150Q714.300-1.530 713.100-0.615Q711.900 0.300 710.040 0.300ZM710.940-2.040L710.940-2.040Q712.620-2.040 713.580-3.090Q714.540-4.140 714.540-6L714.540-6L714.540-10.500Q714.540-12.360 713.580-13.410Q712.620-14.460 710.940-14.460L710.940-14.460Q709.230-14.460 708.270-13.575Q707.310-12.690 707.310-10.650L707.310-10.650L707.310-5.850Q707.310-3.840 708.270-2.940Q709.230-2.040 710.940-2.040Z M729 0.300L729 0.300Q726.090 0.300 724.305-1.455Q722.520-3.210 722.520-6.300L722.520-6.300L722.520-10.200Q722.520-13.290 724.305-15.045Q726.090-16.800 729-16.800L729-16.800Q730.950-16.800 732.405-16.020Q733.860-15.240 734.670-13.830Q735.480-12.420 735.480-10.500L735.480-10.500L735.480-7.560L725.160-7.560L725.160-6Q725.160-4.170 726.210-3.105Q727.260-2.040 729-2.040L729-2.040Q730.500-2.040 731.475-2.625Q732.450-3.210 732.660-4.200L732.660-4.200L735.360-4.200Q735.090-2.130 733.350-0.915Q731.610 0.300 729 0.300ZM725.160-10.500L725.160-9.660L732.840-9.660L732.840-10.500Q732.840-12.450 731.835-13.515Q730.830-14.580 729-14.580L729-14.580Q727.170-14.580 726.165-13.515Q725.160-12.450 725.160-10.500L725.160-10.500Z  M765.240 0.300L765.240 0.300Q762.240 0.300 760.500-1.380Q758.760-3.060 758.760-6L758.760-6L758.760-15.900Q758.760-18.840 760.500-20.520Q762.240-22.200 765.240-22.200L765.240-22.200Q768.180-22.200 769.920-20.505Q771.660-18.810 771.660-15.900L771.660-15.900L768.960-15.900Q768.960-17.760 767.985-18.765Q767.010-19.770 765.240-19.770L765.240-19.770Q763.470-19.770 762.465-18.765Q761.460-17.760 761.460-15.900L761.460-15.900L761.460-6Q761.460-4.140 762.465-3.135Q763.470-2.130 765.240-2.130L765.240-2.130Q767.010-2.130 767.985-3.135Q768.960-4.140 768.960-6L768.960-6L771.660-6Q771.660-3.090 769.920-1.395Q768.180 0.300 765.240 0.300Z M783 0.240L783 0.240Q780.030 0.240 778.275-1.500Q776.520-3.240 776.520-6.360L776.520-6.360L776.520-10.140Q776.520-13.290 778.260-15.015Q780-16.740 783-16.740L783-16.740Q786-16.740 787.740-15.015Q789.480-13.290 789.480-10.140L789.480-10.140L789.480-6.360Q789.480-3.240 787.725-1.500Q785.970 0.240 783 0.240ZM783-2.160L783-2.160Q784.770-2.160 785.775-3.150Q786.780-4.140 786.780-6.060L786.780-6.060L786.780-10.440Q786.780-12.360 785.775-13.350Q784.770-14.340 783-14.340L783-14.340Q781.260-14.340 780.240-13.350Q779.220-12.360 779.220-10.440L779.220-10.440L779.220-6.060Q779.220-4.140 780.240-3.150Q781.260-2.160 783-2.160Z M800.040 0.300L800.040 0.300Q797.580 0.300 796.095-1.350Q794.610-3 794.610-5.820L794.610-5.820L794.610-10.650Q794.610-13.500 796.080-15.150Q797.550-16.800 800.040-16.800L800.040-16.800Q801.900-16.800 803.115-15.870Q804.330-14.940 804.570-13.350L804.570-13.350L804.600-13.350L804.540-17.100L804.540-21.900L807.240-21.900L807.240 0L804.540 0L804.540-3.150L804.510-3.150Q804.300-1.530 803.100-0.615Q801.900 0.300 800.040 0.300ZM800.940-2.040L800.940-2.040Q802.620-2.040 803.580-3.090Q804.540-4.140 804.540-6L804.540-6L804.540-10.500Q804.540-12.360 803.580-13.410Q802.620-14.460 800.940-14.460L800.940-14.460Q799.230-14.460 798.270-13.575Q797.310-12.690 797.310-10.650L797.310-10.650L797.310-5.850Q797.310-3.840 798.270-2.940Q799.230-2.040 800.940-2.040Z M819 0.300L819 0.300Q816.090 0.300 814.305-1.455Q812.520-3.210 812.520-6.300L812.520-6.300L812.520-10.200Q812.520-13.290 814.305-15.045Q816.090-16.800 819-16.800L819-16.800Q820.950-16.800 822.405-16.020Q823.860-15.240 824.670-13.830Q825.480-12.420 825.480-10.500L825.480-10.500L825.480-7.560L815.160-7.560L815.160-6Q815.160-4.170 816.210-3.105Q817.260-2.040 819-2.040L819-2.040Q820.500-2.040 821.475-2.625Q822.450-3.210 822.660-4.200L822.660-4.200L825.360-4.200Q825.090-2.130 823.350-0.915Q821.610 0.300 819 0.300ZM815.160-10.500L815.160-9.660L822.840-9.660L822.840-10.500Q822.840-12.450 821.835-13.515Q820.830-14.580 819-14.580L819-14.580Q817.170-14.580 816.165-13.515Q815.160-12.450 815.160-10.500L815.160-10.500Z" fill="#6A625A"></path>
</svg>