<svg xmlns="http://www.w3.org/2000/svg" viewBox="0 0 339 64" width="339" height="64" fill="none">
<g transform="translate(6,6) scale(0.8125)">
    <path d="M44 16 A20 20 0 1 1 20 16" fill="none" stroke="#BF5B38" stroke-width="5" stroke-linecap="round"></path>
    <path d="M20 8 L20 16 L28 16" fill="none" stroke="#BF5B38" stroke-width="5" stroke-linecap="round" stroke-linejoin="round"></path>
    <rect x="27.5" y="25" width="9" height="14" rx="1.6" fill="#FBFAF8"></rect>
  </g>
  <path d="M81.270 43.300L81.270 43.300Q79.140 43.300 77.565 42.505Q75.990 41.710 75.120 40.255Q74.250 38.800 74.250 36.820L74.250 36.820L74.250 32.680Q74.250 30.700 75.120 29.245Q75.990 27.790 77.565 26.995Q79.140 26.200 81.270 26.200L81.270 26.200Q84.360 26.200 86.235 27.805Q88.110 29.410 88.200 32.170L88.200 32.170L84.510 32.170Q84.420 30.880 83.535 30.175Q82.650 29.470 81.270 29.470L81.270 29.470Q79.740 29.470 78.870 30.295Q78 31.120 78 32.650L78 32.650L78 36.820Q78 38.350 78.870 39.190Q79.740 40.030 81.270 40.030L81.270 40.030Q82.680 40.030 83.550 39.325Q84.420 38.620 84.510 37.330L84.510 37.330L88.200 37.330Q88.110 40.090 86.235 41.695Q84.360 43.300 81.270 43.300Z M98.400 43.270L98.400 43.270Q95.220 43.270 93.360 41.485Q91.500 39.700 91.500 36.670L91.500 36.670L91.500 32.830Q91.500 29.770 93.360 28Q95.220 26.230 98.400 26.230L98.400 26.230Q101.580 26.230 103.440 28Q105.300 29.770 105.300 32.830L105.300 32.830L105.300 36.670Q105.300 39.700 103.440 41.485Q101.580 43.270 98.400 43.270ZM98.400 40L98.400 40Q99.900 40 100.725 39.175Q101.550 38.350 101.550 36.790L101.550 36.790L101.550 32.710Q101.550 31.150 100.725 30.325Q99.900 29.500 98.400 29.500L98.400 29.500Q96.900 29.500 96.075 30.325Q95.250 31.150 95.250 32.710L95.250 32.710L95.250 36.790Q95.250 38.350 96.075 39.175Q96.900 40 98.400 40Z M113.460 43L109.710 43L109.710 26.500L113.370 26.500L113.370 29.710Q113.670 28.090 114.855 27.145Q116.040 26.200 117.930 26.200L117.930 26.200Q120.450 26.200 121.860 27.820Q123.270 29.440 123.270 32.350L123.270 32.350L123.270 33.910L119.520 33.910L119.520 32.530Q119.520 31.030 118.740 30.235Q117.960 29.440 116.520 29.440L116.520 29.440Q115.020 29.440 114.240 30.340Q113.460 31.240 113.460 32.890L113.460 32.890L113.460 43Z M133.230 43.300L133.230 43.300Q131.130 43.300 129.570 42.490Q128.010 41.680 127.155 40.195Q126.300 38.710 126.300 36.700L126.300 36.700L126.300 32.800Q126.300 30.790 127.155 29.305Q128.010 27.820 129.570 27.010Q131.130 26.200 133.230 26.200L133.230 26.200Q135.300 26.200 136.845 27.010Q138.390 27.820 139.245 29.275Q140.100 30.730 140.100 32.680L140.100 32.680L140.100 35.680L129.900 35.680L129.900 36.820Q129.900 38.500 130.770 39.355Q131.640 40.210 133.230 40.210L133.230 40.210Q134.400 40.210 135.225 39.805Q136.050 39.400 136.200 38.620L136.200 38.620L139.920 38.620Q139.530 40.750 137.700 42.025Q135.870 43.300 133.230 43.300ZM129.900 32.680L129.900 32.680L129.900 33.250L136.500 33.220L136.500 32.650Q136.500 30.940 135.660 30.010Q134.820 29.080 133.230 29.080L133.230 29.080Q131.580 29.080 130.740 30.025Q129.900 30.970 129.900 32.680Z M155.400 34.840L145.800 34.840L145.800 31.360L155.400 31.360L155.400 34.840Z" fill="#FBFAF8"></path>
  <path d="M163.710 43L160.410 43L160.410 26.500L163.530 26.500L163.530 28.900L163.620 28.900Q163.710 27.700 164.460 26.950Q165.210 26.200 166.350 26.200L166.350 26.200Q167.460 26.200 168.240 26.905Q169.020 27.610 169.290 28.810L169.290 28.810Q169.410 27.610 170.175 26.905Q170.940 26.200 172.110 26.200L172.110 26.200Q173.610 26.200 174.600 27.385Q175.590 28.570 175.590 30.430L175.590 30.430L175.590 43L172.290 43L172.290 30.700Q172.290 29.890 171.915 29.425Q171.540 28.960 170.850 28.960L170.850 28.960Q169.500 28.960 169.500 30.700L169.500 30.700L169.500 43L166.500 43L166.500 30.700Q166.500 29.890 166.155 29.425Q165.810 28.960 165.150 28.960L165.150 28.960Q163.710 28.960 163.710 30.700L163.710 30.700L163.710 43Z M185.430 43.300L185.430 43.300Q183.330 43.300 181.770 42.490Q180.210 41.680 179.355 40.195Q178.500 38.710 178.500 36.700L178.500 36.700L178.500 32.800Q178.500 30.790 179.355 29.305Q180.210 27.820 181.770 27.010Q183.330 26.200 185.430 26.200L185.430 26.200Q187.500 26.200 189.045 27.010Q190.590 27.820 191.445 29.275Q192.300 30.730 192.300 32.680L192.300 32.680L192.300 35.680L182.100 35.680L182.100 36.820Q182.100 38.500 182.970 39.355Q183.840 40.210 185.430 40.210L185.430 40.210Q186.600 40.210 187.425 39.805Q188.250 39.400 188.400 38.620L188.400 38.620L192.120 38.620Q191.730 40.750 189.900 42.025Q188.070 43.300 185.430 43.300ZM182.100 32.680L182.100 32.680L182.100 33.250L188.700 33.220L188.700 32.650Q188.700 30.940 187.860 30.010Q187.020 29.080 185.430 29.080L185.430 29.080Q183.780 29.080 182.940 30.025Q182.100 30.970 182.100 32.680Z M198.510 43L195.210 43L195.210 26.500L198.330 26.500L198.330 28.900L198.420 28.900Q198.510 27.700 199.260 26.950Q200.010 26.200 201.150 26.200L201.150 26.200Q202.260 26.200 203.040 26.905Q203.820 27.610 204.090 28.810L204.090 28.810Q204.210 27.610 204.975 26.905Q205.740 26.200 206.910 26.200L206.910 26.200Q208.410 26.200 209.400 27.385Q210.390 28.570 210.390 30.430L210.390 30.430L210.390 43L207.090 43L207.090 30.700Q207.090 29.890 206.715 29.425Q206.340 28.960 205.650 28.960L205.650 28.960Q204.300 28.960 204.300 30.700L204.300 30.700L204.300 43L201.300 43L201.300 30.700Q201.300 29.890 200.955 29.425Q200.610 28.960 199.950 28.960L199.950 28.960Q198.510 28.960 198.510 30.700L198.510 30.700L198.510 43Z M220.200 43.270L220.200 43.270Q217.020 43.270 215.160 41.485Q213.300 39.700 213.300 36.670L213.300 36.670L213.300 32.830Q213.300 29.770 215.160 28Q217.020 26.230 220.200 26.230L220.200 26.230Q223.380 26.230 225.240 28Q227.100 29.770 227.100 32.830L227.100 32.830L227.100 36.670Q227.100 39.700 225.240 41.485Q223.380 43.270 220.200 43.270ZM220.200 40L220.200 40Q221.700 40 222.525 39.175Q223.350 38.350 223.350 36.790L223.350 36.790L223.350 32.710Q223.350 31.150 222.525 30.325Q221.700 29.500 220.200 29.500L220.200 29.500Q218.700 29.500 217.875 30.325Q217.050 31.150 217.050 32.710L217.050 32.710L217.050 36.790Q217.050 38.350 217.875 39.175Q218.700 40 220.200 40Z M235.260 43L231.510 43L231.510 26.500L235.170 26.500L235.170 29.710Q235.470 28.090 236.655 27.145Q237.840 26.200 239.730 26.200L239.730 26.200Q242.250 26.200 243.660 27.820Q245.070 29.440 245.070 32.350L245.070 32.350L245.070 33.910L241.320 33.910L241.320 32.530Q241.320 31.030 240.540 30.235Q239.760 29.440 238.320 29.440L238.320 29.440Q236.820 29.440 236.040 30.340Q235.260 31.240 235.260 32.890L235.260 32.890L235.260 43Z M254.880 48.400L250.950 48.400L253.290 42.100L247.080 26.500L251.040 26.500L254.220 34.930Q254.490 35.680 254.760 36.565Q255.030 37.450 255.150 38.200L255.150 38.200Q255.240 37.450 255.495 36.565Q255.750 35.680 256.020 34.930L256.020 34.930L258.960 26.500L262.920 26.500L254.880 48.400Z" fill="#BF5B38"></path>
  <path d="M277.200 34.840L267.600 34.840L267.600 31.360L277.200 31.360L277.200 34.840Z M287.010 43L283.260 43L283.260 21.100L287.010 21.100L287.010 32.980L289.650 32.980L293.580 26.500L297.750 26.500L292.860 34.480L297.930 43L293.670 43L289.650 36.160L287.010 36.160L287.010 43Z M314.940 43L300.480 43L300.480 39.610L306.120 39.610L306.120 29.890L301.080 29.890L301.080 26.500L309.870 26.500L309.870 39.610L314.940 39.610L314.940 43ZM307.740 23.740L307.740 23.740Q306.600 23.740 305.940 23.155Q305.280 22.570 305.280 21.580L305.280 21.580Q305.280 20.590 305.940 20.005Q306.600 19.420 307.740 19.420L307.740 19.420Q308.880 19.420 309.540 20.005Q310.200 20.590 310.200 21.580L310.200 21.580Q310.200 22.570 309.540 23.155Q308.880 23.740 307.740 23.740Z M331.410 43L326.250 43Q323.940 43 322.575 41.665Q321.210 40.330 321.210 38.050L321.210 38.050L321.210 29.890L316.650 29.890L316.650 26.500L321.210 26.500L321.210 21.850L324.990 21.850L324.990 26.500L331.560 26.500L331.560 29.890L324.990 29.890L324.990 37.960Q324.990 38.680 325.395 39.145Q325.800 39.610 326.520 39.610L326.520 39.610L331.410 39.610L331.410 43Z" fill="#FBFAF8"></path>
</svg>