<svg xmlns="http://www.w3.org/2000/svg" viewBox="0 0 374 64" width="374" height="64" fill="none">
<g transform="translate(6,6) scale(0.8125)">
    <path d="M44 16 A20 20 0 1 1 20 16" fill="none" stroke="#BF5B38" stroke-width="5" stroke-linecap="round"></path>
    <path d="M20 8 L20 16 L28 16" fill="none" stroke="#BF5B38" stroke-width="5" stroke-linecap="round" stroke-linejoin="round"></path>
    <rect x="27.5" y="25" width="9" height="14" rx="1.6" fill="#211D1A"></rect>
  </g>
  <path d="M81.270 43.300L81.270 43.300Q79.140 43.300 77.565 42.505Q75.990 41.710 75.120 40.255Q74.250 38.800 74.250 36.820L74.250 36.820L74.250 32.680Q74.250 30.700 75.120 29.245Q75.990 27.790 77.565 26.995Q79.140 26.200 81.270 26.200L81.270 26.200Q84.360 26.200 86.235 27.805Q88.110 29.410 88.200 32.170L88.200 32.170L84.510 32.170Q84.420 30.880 83.535 30.175Q82.650 29.470 81.270 29.470L81.270 29.470Q79.740 29.470 78.870 30.295Q78 31.120 78 32.650L78 32.650L78 36.820Q78 38.350 78.870 39.190Q79.740 40.030 81.270 40.030L81.270 40.030Q82.680 40.030 83.550 39.325Q84.420 38.620 84.510 37.330L84.510 37.330L88.200 37.330Q88.110 40.090 86.235 41.695Q84.360 43.300 81.270 43.300Z M106.170 43L101.070 43Q98.610 43 97.125 41.530Q95.640 40.060 95.640 37.660L95.640 37.660L95.640 24.490L90.210 24.490L90.210 21.100L99.390 21.100L99.390 37.570Q99.390 38.500 99.915 39.055Q100.440 39.610 101.340 39.610L101.340 39.610L106.170 39.610L106.170 43Z M113.970 43.300L113.970 43.300Q111.450 43.300 109.995 41.875Q108.540 40.450 108.540 38.140L108.540 38.140Q108.540 35.740 110.190 34.315Q111.840 32.890 114.720 32.890L114.720 32.890L118.740 32.890L118.740 31.720Q118.740 29.230 115.830 29.230L115.830 29.230Q114.510 29.230 113.730 29.740Q112.950 30.250 112.860 31.180L112.860 31.180L109.260 31.180Q109.380 28.960 111.135 27.580Q112.890 26.200 115.860 26.200L115.860 26.200Q119.010 26.200 120.750 27.670Q122.490 29.140 122.490 31.810L122.490 31.810L122.490 43L118.830 43L118.830 39.910Q118.620 41.500 117.330 42.400Q116.040 43.300 113.970 43.300ZM115.170 40.240L115.170 40.240Q116.820 40.240 117.780 39.430Q118.740 38.620 118.740 37.270L118.740 37.270L118.740 35.320L114.900 35.320Q113.670 35.320 112.950 36.010Q112.230 36.700 112.230 37.780L112.230 37.780Q112.230 38.890 112.995 39.565Q113.760 40.240 115.170 40.240Z M133.200 43.300L133.200 43.300Q130.050 43.300 128.250 41.545Q126.450 39.790 126.450 36.760L126.450 36.760L126.450 26.500L130.200 26.500L130.200 36.730Q130.200 38.290 130.980 39.160Q131.760 40.030 133.200 40.030L133.200 40.030Q134.610 40.030 135.405 39.160Q136.200 38.290 136.200 36.730L136.200 36.730L136.200 26.500L139.950 26.500L139.950 36.760Q139.950 39.790 138.120 41.545Q136.290 43.300 133.200 43.300Z M149.100 43.300L149.100 43.300Q146.700 43.300 145.215 41.590Q143.730 39.880 143.730 37L143.730 37L143.730 32.530Q143.730 29.620 145.200 27.910Q146.670 26.200 149.100 26.200L149.100 26.200Q150.810 26.200 151.995 27.070Q153.180 27.940 153.660 29.500L153.660 29.500L153.540 25.720L153.540 21.100L157.290 21.100L157.290 43L153.630 43L153.630 40Q153.180 41.560 152.010 42.430Q150.840 43.300 149.100 43.300ZM150.510 40.060L150.510 40.060Q151.950 40.060 152.745 39.190Q153.540 38.320 153.540 36.730L153.540 36.730L153.540 32.770Q153.540 31.180 152.745 30.310Q151.950 29.440 150.510 29.440L150.510 29.440Q149.070 29.440 148.275 30.220Q147.480 31 147.480 32.620L147.480 32.620L147.480 36.880Q147.480 38.500 148.275 39.280Q149.070 40.060 150.510 40.060Z M168.030 43.300L168.030 43.300Q165.930 43.300 164.370 42.490Q162.810 41.680 161.955 40.195Q161.100 38.710 161.100 36.700L161.100 36.700L161.100 32.800Q161.100 30.790 161.955 29.305Q162.810 27.820 164.370 27.010Q165.930 26.200 168.030 26.200L168.030 26.200Q170.100 26.200 171.645 27.010Q173.190 27.820 174.045 29.275Q174.900 30.730 174.900 32.680L174.900 32.680L174.900 35.680L164.700 35.680L164.700 36.820Q164.700 38.500 165.570 39.355Q166.440 40.210 168.030 40.210L168.030 40.210Q169.200 40.210 170.025 39.805Q170.850 39.400 171.000 38.620L171.000 38.620L174.720 38.620Q174.330 40.750 172.500 42.025Q170.670 43.300 168.030 43.300ZM164.700 32.680L164.700 32.680L164.700 33.250L171.300 33.220L171.300 32.650Q171.300 30.940 170.460 30.010Q169.620 29.080 168.030 29.080L168.030 29.080Q166.380 29.080 165.540 30.025Q164.700 30.970 164.700 32.680Z M190.200 34.840L180.600 34.840L180.600 31.360L190.200 31.360L190.200 34.840Z" fill="#211D1A"></path>
  <path d="M198.510 43L195.210 43L195.210 26.500L198.330 26.500L198.330 28.900L198.420 28.900Q198.510 27.700 199.260 26.950Q200.010 26.200 201.150 26.200L201.150 26.200Q202.260 26.200 203.040 26.905Q203.820 27.610 204.090 28.810L204.090 28.810Q204.210 27.610 204.975 26.905Q205.740 26.200 206.910 26.200L206.910 26.200Q208.410 26.200 209.400 27.385Q210.390 28.570 210.390 30.430L210.390 30.430L210.390 43L207.090 43L207.090 30.700Q207.090 29.890 206.715 29.425Q206.340 28.960 205.650 28.960L205.650 28.960Q204.300 28.960 204.300 30.700L204.300 30.700L204.300 43L201.300 43L201.300 30.700Q201.300 29.890 200.955 29.425Q200.610 28.960 199.950 28.960L199.950 28.960Q198.510 28.960 198.510 30.700L198.510 30.700L198.510 43Z M220.230 43.300L220.230 43.300Q218.130 43.300 216.570 42.490Q215.010 41.680 214.155 40.195Q213.300 38.710 213.300 36.700L213.300 36.700L213.300 32.800Q213.300 30.790 214.155 29.305Q215.010 27.820 216.570 27.010Q218.130 26.200 220.230 26.200L220.230 26.200Q222.300 26.200 223.845 27.010Q225.390 27.820 226.245 29.275Q227.100 30.730 227.100 32.680L227.100 32.680L227.100 35.680L216.900 35.680L216.900 36.820Q216.900 38.500 217.770 39.355Q218.640 40.210 220.230 40.210L220.230 40.210Q221.400 40.210 222.225 39.805Q223.050 39.400 223.200 38.620L223.200 38.620L226.920 38.620Q226.530 40.750 224.700 42.025Q222.870 43.300 220.230 43.300ZM216.900 32.680L216.900 32.680L216.900 33.250L223.500 33.220L223.500 32.650Q223.500 30.940 222.660 30.010Q221.820 29.080 220.230 29.080L220.230 29.080Q218.580 29.080 217.740 30.025Q216.900 30.970 216.900 32.680Z M233.310 43L230.010 43L230.010 26.500L233.130 26.500L233.130 28.900L233.220 28.900Q233.310 27.700 234.060 26.950Q234.810 26.200 235.950 26.200L235.950 26.200Q237.060 26.200 237.840 26.905Q238.620 27.610 238.890 28.810L238.890 28.810Q239.010 27.610 239.775 26.905Q240.540 26.200 241.710 26.200L241.710 26.200Q243.210 26.200 244.200 27.385Q245.190 28.570 245.190 30.430L245.190 30.430L245.190 43L241.890 43L241.890 30.700Q241.890 29.890 241.515 29.425Q241.140 28.960 240.450 28.960L240.450 28.960Q239.100 28.960 239.100 30.700L239.100 30.700L239.100 43L236.100 43L236.100 30.700Q236.100 29.890 235.755 29.425Q235.410 28.960 234.750 28.960L234.750 28.960Q233.310 28.960 233.310 30.700L233.310 30.700L233.310 43Z M255.000 43.270L255.000 43.270Q251.820 43.270 249.960 41.485Q248.100 39.700 248.100 36.670L248.100 36.670L248.100 32.830Q248.100 29.770 249.960 28Q251.820 26.230 255.000 26.230L255.000 26.230Q258.180 26.230 260.040 28Q261.900 29.770 261.900 32.830L261.900 32.830L261.900 36.670Q261.900 39.700 260.040 41.485Q258.180 43.270 255.000 43.270ZM255.000 40L255.000 40Q256.500 40 257.325 39.175Q258.150 38.350 258.150 36.790L258.150 36.790L258.150 32.710Q258.150 31.150 257.325 30.325Q256.500 29.500 255.000 29.500L255.000 29.500Q253.500 29.500 252.675 30.325Q251.850 31.150 251.850 32.710L251.850 32.710L251.850 36.790Q251.850 38.350 252.675 39.175Q253.500 40 255.000 40Z M270.060 43L266.310 43L266.310 26.500L269.970 26.500L269.970 29.710Q270.270 28.090 271.455 27.145Q272.640 26.200 274.530 26.200L274.530 26.200Q277.050 26.200 278.460 27.820Q279.870 29.440 279.870 32.350L279.870 32.350L279.870 33.910L276.120 33.910L276.120 32.530Q276.120 31.030 275.340 30.235Q274.560 29.440 273.120 29.440L273.120 29.440Q271.620 29.440 270.840 30.340Q270.060 31.240 270.060 32.890L270.060 32.890L270.060 43Z M289.680 48.400L285.750 48.400L288.090 42.100L281.880 26.500L285.840 26.500L289.020 34.930Q289.290 35.680 289.560 36.565Q289.830 37.450 289.950 38.200L289.950 38.200Q290.040 37.450 290.295 36.565Q290.550 35.680 290.820 34.930L290.820 34.930L293.760 26.500L297.720 26.500L289.680 48.400Z" fill="#BF5B38"></path>
  <path d="M312 34.840L302.400 34.840L302.400 31.360L312 31.360L312 34.840Z M321.810 43L318.060 43L318.060 21.100L321.810 21.100L321.810 32.980L324.450 32.980L328.380 26.500L332.550 26.500L327.660 34.480L332.730 43L328.470 43L324.450 36.160L321.810 36.160L321.810 43Z M349.740 43L335.280 43L335.280 39.610L340.920 39.610L340.920 29.890L335.880 29.890L335.880 26.500L344.670 26.500L344.670 39.610L349.740 39.610L349.740 43ZM342.540 23.740L342.540 23.740Q341.400 23.740 340.740 23.155Q340.080 22.570 340.080 21.580L340.080 21.580Q340.080 20.590 340.740 20.005Q341.400 19.420 342.540 19.420L342.540 19.420Q343.680 19.420 344.340 20.005Q345.000 20.590 345.000 21.580L345.000 21.580Q345.000 22.570 344.340 23.155Q343.680 23.740 342.540 23.740Z M366.210 43L361.050 43Q358.740 43 357.375 41.665Q356.010 40.330 356.010 38.050L356.010 38.050L356.010 29.890L351.450 29.890L351.450 26.500L356.010 26.500L356.010 21.850L359.790 21.850L359.790 26.500L366.360 26.500L366.360 29.890L359.790 29.890L359.790 37.960Q359.790 38.680 360.195 39.145Q360.600 39.610 361.320 39.610L361.320 39.610L366.210 39.610L366.210 43Z" fill="#211D1A"></path>
</svg>